<?xml version="1.0" encoding="UTF-8"?>
<svg version="1.1" xmlns="http://www.w3.org/2000/svg" width="4000" height="2000">
<path d="M0 0 C1320 0 2640 0 4000 0 C4000 660 4000 1320 4000 2000 C2680 2000 1360 2000 0 2000 C0 1340 0 680 0 0 Z " fill="#FEFEFE" transform="translate(0,0)"/>
<path d="M0 0 C0.82665633 0.1670299 1.65331266 0.33405979 2.50501919 0.5061512 C5.27241018 1.06739952 8.03709192 1.64102023 10.80200195 2.21435547 C12.82257238 2.62622806 14.84331996 3.03723242 16.86422729 3.44744873 C22.42142207 4.57758968 27.97644754 5.71807552 33.53111649 6.86055756 C43.22498542 8.85223782 52.92231365 10.82706456 62.61942101 12.80290604 C65.23821149 13.33659322 67.85693674 13.87058956 70.47556496 14.40507126 C91.15461708 18.62473471 111.85284119 22.74121385 132.56287521 26.80595458 C138.5321856 27.97766421 144.50081775 29.1527754 150.4690094 30.33016968 C151.31143985 30.49634289 152.1538703 30.6625161 153.02182895 30.83372486 C156.41955385 31.50399581 159.81726068 32.17435797 163.21489918 32.84506679 C173.28264811 34.83235077 183.35245258 36.80837196 193.42593527 38.76639032 C199.82740868 40.01180593 206.22592072 41.27176172 212.62246656 42.54223967 C216.33904589 43.27989938 220.05657629 44.01116436 223.77785873 44.72475433 C239.98059639 47.83623711 255.33063343 51.45168168 270.3527832 58.45654297 C271.06491722 58.78388617 271.77705124 59.11122936 272.51076508 59.44849205 C277.41011617 61.70498707 282.27353896 64.03109525 287.11132812 66.41723633 C288.88260006 67.2873556 290.66251004 68.13982154 292.44262695 68.99169922 C293.46219482 69.49064697 294.4817627 69.98959473 295.53222656 70.50366211 C299.39440163 71.80843743 301.78749908 71.16803575 305.4152832 69.51904297 C306.3743457 68.99310547 306.3743457 68.99310547 307.3527832 68.45654297 C316.08153668 63.97025627 325.2076828 65.14692578 334.55981445 67.03076172 C335.40646164 67.19647171 336.25310883 67.3621817 337.12541199 67.53291321 C338.90527752 67.88418642 340.68427281 68.23989583 342.46240234 68.59985352 C345.14505089 69.13996946 347.83140715 69.65741378 350.51879883 70.17333984 C360.80173259 72.19977479 369.93643077 74.74836675 379.3527832 79.45654297 C379.0227832 78.46654297 378.6927832 77.47654297 378.3527832 76.45654297 C388.62919182 77.87818568 398.75795036 79.87224659 408.91898108 81.94414139 C412.06183534 82.58493774 415.20544816 83.22190296 418.34923172 83.85812378 C423.09004123 84.81792563 427.83052703 85.77930532 432.57078934 86.74180603 C445.68261872 89.40342532 458.79707425 92.05206491 471.91166839 94.70002234 C473.46352462 95.01336337 475.01537482 95.32673432 476.56721917 95.64013422 C521.29534519 104.67303771 566.04338843 113.60643417 610.79044469 122.54499066 C622.67012974 124.91807284 634.54964852 127.29198684 646.42916068 129.66593432 C688.31475419 138.03608279 730.20083112 146.40380918 772.08760615 154.76804298 C792.90000839 158.92406101 813.71197146 163.08227328 834.52355707 167.24237871 C847.25124688 169.78647758 859.97929548 172.3287665 872.70782284 174.86867172 C881.33841036 176.59100938 889.96858469 178.31540655 898.59842713 180.04147357 C903.56924827 181.03562515 908.54025692 182.02881396 913.51176834 183.01950836 C918.05082473 183.92404384 922.58935029 184.831193 927.12745409 185.74049526 C928.77363745 186.06984741 930.42001947 186.39820836 932.06661089 186.72551435 C934.29080874 187.16777927 936.51427751 187.61353754 938.73758888 188.06023407 C939.97585037 188.30755012 941.21411186 188.55486617 942.48989642 188.80967665 C945.3527832 189.45654297 945.3527832 189.45654297 947.3527832 190.45654297 C948.01415558 196.50760663 945.74401984 200.8434958 943.1652832 206.14404297 C942.71967041 207.06668945 942.27405762 207.98933594 941.81494141 208.93994141 C936.91628166 218.77255747 930.87285864 227.64071963 924.3527832 236.45654297 C923.80154785 237.20452148 923.2503125 237.9525 922.68237305 238.72314453 C915.5954908 248.28200128 908.11337522 257.43982948 900.3527832 266.45654297 C898.67886795 268.4506405 897.01515666 270.45278925 895.3527832 272.45654297 C903.81984017 267.33219186 911.62625926 261.61238215 919.3527832 255.45654297 C920.79717773 254.30605469 920.79717773 254.30605469 922.27075195 253.13232422 C928.48671266 248.10870576 934.51575185 242.91614222 940.3527832 237.45654297 C940.8286084 237.0147168 941.30443359 236.57289063 941.79467773 236.11767578 C953.25993725 225.3878953 961.79230768 213.77433753 968.3527832 199.45654297 C969.01618524 198.12158231 969.68230814 196.78796529 970.3527832 195.45654297 C977.21495369 196.02298245 983.87545528 197.01883149 990.62011719 198.39013672 C991.59211563 198.58374786 992.56411407 198.77735901 993.56556702 198.97683716 C996.74428893 199.61125036 999.92158556 200.2525072 1003.09887695 200.89404297 C1005.31934924 201.3389883 1007.53989592 201.78356259 1009.76051331 202.2277832 C1014.3966041 203.15623041 1019.03204346 204.08784111 1023.66699219 205.02197266 C1029.61352337 206.22036848 1035.56122525 207.41282661 1041.50936794 208.60319519 C1046.08635394 209.51947675 1050.66291856 210.43784749 1055.23933601 211.35696411 C1057.43335821 211.79754575 1059.62746377 212.23771249 1061.82165337 212.67745972 C1064.87857417 213.29064743 1067.93496676 213.90639917 1070.99121094 214.52294922 C1071.89978851 214.70479767 1072.80836609 214.88664612 1073.74447632 215.07400513 C1074.99110802 215.32632401 1074.99110802 215.32632401 1076.26292419 215.58374023 C1076.98460502 215.7290065 1077.70628584 215.87427277 1078.44983578 216.02394104 C1080.3527832 216.45654297 1080.3527832 216.45654297 1083.3527832 217.45654297 C1070.2080297 263.46318022 1027.28086283 300.65672221 987.3527832 323.45654297 C949.39348088 344.45654297 949.39348088 344.45654297 941.3527832 344.45654297 C941.3527832 345.11654297 941.3527832 345.77654297 941.3527832 346.45654297 C942.3427832 346.78654297 943.3327832 347.11654297 944.3527832 347.45654297 C956.23315521 363.41088238 959.94469231 381.94768931 959.7902832 401.51904297 C959.78790649 402.18408844 959.78552979 402.84913391 959.78308105 403.53433228 C959.63864764 429.57078397 954.38993708 454.28653126 935.64575195 473.35498047 C930.38547957 478.45347081 924.53470731 482.55813587 918.3527832 486.45654297 C917.75546387 486.83762207 917.15814453 487.21870117 916.54272461 487.61132812 C893.55331322 502.03424941 866.37774081 509.60796344 839.99438477 514.921875 C838.24401685 515.27615464 836.49586748 515.64159175 834.75024414 516.01855469 C829.39372892 517.15550231 824.19545426 517.83254087 818.7277832 518.08154297 C817.65077148 518.13955078 817.65077148 518.13955078 816.55200195 518.19873047 C814.81926225 518.29114325 813.08606021 518.37482519 811.3527832 518.45654297 C811.1052832 519.29056641 810.8577832 520.12458984 810.6027832 520.98388672 C809.18911158 524.9112432 807.39977169 528.39221738 805.3527832 532.01904297 C804.96123047 532.71433105 804.56967773 533.40961914 804.16625977 534.12597656 C800.15694225 541.06859318 795.44319293 547.27051525 790.3527832 553.45654297 C789.53551758 554.47619141 788.71825195 555.49583984 787.8762207 556.54638672 C776.90261389 569.20170726 761.04624874 578.16085619 745.2277832 583.20654297 C744.57076416 583.41746582 743.91374512 583.62838867 743.23681641 583.84570312 C723.93371856 589.72464785 700.52721449 588.03303265 681.3527832 582.45654297 C680.27770508 582.15619141 679.20262695 581.85583984 678.0949707 581.54638672 C673.67208502 580.18413793 669.45432035 578.5236918 665.2434082 576.61279297 C664.52693115 576.28899658 663.8104541 575.9652002 663.07226562 575.6315918 C661.66463402 574.98712436 660.2632978 574.32867159 658.86962891 573.65454102 C656.04212082 572.34254046 653.8276507 571.44194236 650.68481445 571.53857422 C647.87116775 572.64612359 645.85774387 574.08816263 643.4777832 575.95654297 C636.73762325 581.01618047 629.65186339 585.26674426 622.3527832 589.45654297 C621.76013672 589.80217285 621.16749023 590.14780273 620.55688477 590.50390625 C594.18302104 605.78493168 561.7891742 615.33769335 531.44262695 607.42919922 C500.10842526 597.5654619 477.29147961 574.99802677 462.2902832 546.33154297 C457.64218133 537.3353465 457.64218133 537.3353465 456.46704102 533.7668457 C455.57805153 531.34884035 455.57805153 531.34884035 453.52783203 530.46508789 C452.42991333 530.20369019 452.42991333 530.20369019 451.30981445 529.93701172 C450.49061523 529.72391357 449.67141602 529.51081543 448.82739258 529.29125977 C447.94889648 529.07767822 447.07040039 528.86409668 446.1652832 528.64404297 C420.11588557 521.55131596 399.76487627 503.92931653 385.3527832 481.45654297 C384.65540039 480.36986328 383.95801758 479.28318359 383.23950195 478.16357422 C377.36748583 468.43769121 373.23612326 458.10517175 369.3527832 447.45654297 C369.08804199 446.73112305 368.82330078 446.00570313 368.55053711 445.25830078 C365.04201993 435.42890196 363.27794299 425.84042599 362.3527832 415.45654297 C361.17135742 416.05402344 361.17135742 416.05402344 359.96606445 416.66357422 C330.80704942 430.84624307 298.71946731 423.88516036 269.2746582 413.74560547 C251.17502402 407.23408753 232.98989403 399.10747259 216.3527832 389.45654297 C216.6827832 389.78654297 217.0127832 390.11654297 217.3527832 390.45654297 C218.23643555 391.35759766 218.23643555 391.35759766 219.13793945 392.27685547 C223.41750994 396.60781017 227.76679222 400.74815862 232.38793945 404.71044922 C235.16702835 407.18013657 237.74138816 409.83557619 240.34887695 412.48388672 C242.92746933 415.02226712 245.65070583 417.36304463 248.39575195 419.71826172 C251.0237371 422.05250002 253.46867215 424.54418593 255.9074707 427.07373047 C257.32388097 428.56508782 257.32388097 428.56508782 259.3527832 429.45654297 C259.3527832 430.11654297 259.3527832 430.77654297 259.3527832 431.45654297 C260.23063477 431.42560547 260.23063477 431.42560547 261.1262207 431.39404297 C278.21227116 431.80451866 294.7928367 442.96725074 306.2277832 454.93310547 C317.24668479 468.01805111 323.52596284 484.21348893 323.5402832 501.26904297 C323.5525293 502.02507812 323.56477539 502.78111328 323.57739258 503.56005859 C323.64063248 528.28685989 309.09486061 553.99269465 292.42797852 571.47558594 C290.75256727 573.15394537 289.06475107 574.81556529 287.3527832 576.45654297 C287.56370605 577.07972412 287.77462891 577.70290527 287.99194336 578.3449707 C288.79299913 580.7117264 289.58894057 583.07741842 290.3527832 585.45654297 C290.70856445 586.53419922 291.0643457 587.61185547 291.4309082 588.72216797 C294.7880742 602.32153532 292.34125087 615.72185103 285.4777832 627.76904297 C284.46115768 629.34795026 283.42113502 630.91216604 282.3527832 632.45654297 C281.93641602 633.05853516 281.52004883 633.66052734 281.09106445 634.28076172 C273.90630165 643.53680749 262.7745686 650.45460838 252.3527832 655.45654297 C251.71244141 655.76833496 251.07209961 656.08012695 250.41235352 656.40136719 C225.43469966 668.45178726 199.64787972 673.9099899 172.65356445 665.27294922 C157.40553162 659.64854422 144.83047361 650.83585317 133.3527832 639.45654297 C132.49168945 638.64443359 131.6305957 637.83232422 130.7434082 636.99560547 C117.36774022 624.15994892 107.97557892 608.75493336 99.3527832 592.45654297 C99.25481445 593.15779297 99.1568457 593.85904297 99.0559082 594.58154297 C97.5314379 604.25404423 95.21775363 610.65665901 87.48168945 616.92529297 C76.39755704 624.89773316 63.89090835 626.01232191 50.6027832 625.89404297 C49.51563522 625.8894809 49.51563522 625.8894809 48.40652466 625.88482666 C35.39048333 625.80443331 23.04734606 624.42306187 10.3527832 621.45654297 C9.35956055 621.23160156 8.36633789 621.00666016 7.34301758 620.77490234 C-22.22773504 614.0110818 -51.27569554 604.49522697 -74.6472168 584.45654297 C-75.65461914 583.66570312 -75.65461914 583.66570312 -76.68237305 582.85888672 C-93.63959319 569.13803464 -103.50294407 547.67210944 -106.6472168 526.45654297 C-107.1319043 527.29056641 -107.6165918 528.12458984 -108.1159668 528.98388672 C-116.15301263 542.4768502 -124.55730864 552.5865176 -140.2097168 557.39404297 C-166.39098968 563.34433226 -194.12541368 547.53939985 -215.62182617 534.234375 C-235.75769359 521.50321112 -254.66105064 506.41432342 -271.94946289 490.05273438 C-273.80065077 488.31228768 -275.66955501 486.59233498 -277.54174805 484.87451172 C-289.31832587 474.04340385 -289.31832587 474.04340385 -293.9362793 468.47607422 C-296.12047481 465.89792564 -298.4520645 463.47547928 -300.7722168 461.01904297 C-312.57668278 448.29155184 -322.4061178 433.92396434 -331.6550293 419.27685547 C-343.91550284 400.16640076 -359.96289055 387.04758849 -382.4597168 381.58154297 C-400.68396232 378.42115979 -418.78013375 380.2481028 -436.6472168 384.45654297 C-435.9047168 385.19775391 -435.1622168 385.93896484 -434.3972168 386.70263672 C-433.4897168 387.61142578 -432.5822168 388.52021484 -431.6472168 389.45654297 C-430.9665918 390.12814453 -430.2859668 390.79974609 -429.5847168 391.49169922 C-419.39074172 402.15837878 -416.25393823 415.39161206 -416.3347168 429.76904297 C-416.34035645 430.82502686 -416.34599609 431.88101074 -416.35180664 432.96899414 C-416.60692807 449.717337 -420.19022979 464.68602711 -425.6472168 480.45654297 C-424.16064575 480.89353516 -424.16064575 480.89353516 -422.64404297 481.33935547 C-385.07248521 492.42240325 -385.07248521 492.42240325 -370.6472168 499.45654297 C-369.66301758 499.92906494 -369.66301758 499.92906494 -368.65893555 500.41113281 C-349.89178861 509.54022081 -330.66836903 522.27325469 -323.47143555 542.81201172 C-322.55815459 546.85035834 -322.38578458 550.464686 -322.4597168 554.58154297 C-322.46036133 555.27119141 -322.46100586 555.96083984 -322.46166992 556.67138672 C-322.4856851 559.46248464 -322.57915773 562.12380976 -323.1394043 564.86279297 C-327.12143986 585.2018054 -320.36486376 604.1789745 -309.8894043 621.33544922 C-302.24985391 632.68817642 -291.73794142 644.78475735 -279.6472168 651.45654297 C-276.33385729 651.72310614 -276.33385729 651.72310614 -272.7722168 651.20654297 C-271.36401226 651.07319283 -269.95508015 650.94739083 -268.5456543 650.82763672 C-267.38694824 650.72878174 -267.38694824 650.72878174 -266.20483398 650.62792969 C-253.53578309 649.77897267 -240.01960597 649.33220227 -227.6472168 652.45654297 C-226.53733398 652.71306641 -225.42745117 652.96958984 -224.28393555 653.23388672 C-207.07083872 657.61711247 -192.87950745 666.95216901 -183.11206055 681.90185547 C-179.21479487 688.69868681 -175.52710547 695.67496402 -175.5144043 703.64404297 C-175.51311523 704.42521484 -175.51182617 705.20638672 -175.51049805 706.01123047 C-175.51436523 706.81818359 -175.51823242 707.62513672 -175.5222168 708.45654297 C-175.51834961 709.26349609 -175.51448242 710.07044922 -175.51049805 710.90185547 C-175.51178711 711.68302734 -175.51307617 712.46419922 -175.5144043 713.26904297 C-175.51609619 714.33058594 -175.51609619 714.33058594 -175.51782227 715.41357422 C-175.6472168 717.45654297 -175.6472168 717.45654297 -176.1471408 719.21053608 C-176.76828028 722.00027916 -176.7748992 724.57609815 -176.77782732 727.43562198 C-176.78150803 728.67018286 -176.78518874 729.90474374 -176.78898099 731.17671555 C-176.78803531 732.55167248 -176.78699895 733.92662935 -176.785882 735.30158615 C-176.78832881 736.76438983 -176.79121249 738.22719283 -176.79449478 739.68999487 C-176.80228822 743.73287682 -176.80383769 747.7757413 -176.8044222 751.81862984 C-176.80614696 756.20813716 -176.8136299 760.59763516 -176.82039875 764.98713708 C-176.83147295 772.6878711 -176.83883422 780.38860183 -176.84379768 788.08934212 C-176.85119488 799.54014388 -176.86427596 810.99093416 -176.87854344 822.44172918 C-176.90237907 841.70180868 -176.92157268 860.96189022 -176.93814278 880.22197723 C-176.95457008 899.29854359 -176.97304705 918.37510614 -176.99427605 937.45166779 C-176.99625246 939.22924509 -176.99625246 939.22924509 -176.9982688 941.04273305 C-177.00497066 947.06073565 -177.01170928 953.07873821 -177.01846205 959.09674075 C-177.06625588 1001.74906045 -177.10943205 1044.40138371 -177.14990234 1087.05371094 C-177.18923514 1128.49609638 -177.23065351 1169.93847888 -177.27490234 1211.38085938 C-177.27626487 1212.65775107 -177.2776274 1213.93464277 -177.27903122 1215.25022816 C-177.29271631 1228.07301666 -177.30644388 1240.89580511 -177.32020256 1253.71859353 C-177.34823093 1279.84130574 -177.37597576 1305.96401826 -177.40354919 1332.08673096 C-177.40545149 1333.88844676 -177.40545149 1333.88844676 -177.40739222 1335.72656086 C-177.44625785 1372.5513283 -177.48392141 1409.37609682 -177.520401 1446.2008667 C-177.52143739 1447.24659284 -177.52247378 1448.29231898 -177.52354158 1449.36973378 C-177.56550748 1491.73200279 -177.60620233 1534.09427303 -177.6472168 1576.45654297 C-234.7372168 1576.45654297 -291.8272168 1576.45654297 -350.6472168 1576.45654297 C-350.6472168 1557.64654297 -350.6472168 1538.83654297 -350.6472168 1519.45654297 C-354.77874232 1521.93545828 -356.56039966 1523.21515475 -359.4597168 1526.70654297 C-363.23076754 1531.06747874 -367.22695492 1534.7704155 -371.6472168 1538.45654297 C-372.50831055 1539.20548828 -373.3694043 1539.95443359 -374.2565918 1540.72607422 C-401.24738209 1563.88709022 -433.8379069 1580.06665209 -468.75170898 1586.88916016 C-470.65899308 1587.26289778 -472.56348411 1587.65122992 -474.46459961 1588.05517578 C-522.11393909 1598.04273888 -575.17149118 1591.50232551 -619.6472168 1572.45654297 C-620.8523291 1571.94269043 -620.8523291 1571.94269043 -622.08178711 1571.41845703 C-656.204505 1556.62505246 -687.78693347 1531.77292763 -710.6472168 1502.45654297 C-711.51381981 1501.38990327 -712.38240483 1500.32487163 -713.25268555 1499.26123047 C-761.08409089 1440.3460049 -777.80720524 1363.7512218 -770.51586914 1289.22241211 C-767.06157387 1256.22429453 -758.39673525 1224.25083866 -743.6472168 1194.45654297 C-743.31367187 1193.78236328 -742.98012695 1193.10818359 -742.63647461 1192.41357422 C-732.02174411 1171.24748475 -718.30284299 1152.16895304 -702.6472168 1134.45654297 C-702.17316406 1133.91932617 -701.69911133 1133.38210938 -701.21069336 1132.82861328 C-664.80465993 1091.85054626 -617.78372366 1067.35905263 -564.2722168 1057.20654297 C-563.43005615 1057.04323486 -562.58789551 1056.87992676 -561.72021484 1056.71166992 C-547.70916647 1054.17782872 -533.46762098 1054.27005927 -519.27832031 1054.27124023 C-516.3497054 1054.26905416 -513.42146868 1054.25082429 -510.49291992 1054.23193359 C-494.24970977 1054.1817123 -478.57811785 1055.40549573 -462.7097168 1059.01904297 C-461.57421387 1059.27733887 -460.43871094 1059.53563477 -459.26879883 1059.80175781 C-432.2499838 1066.18734699 -405.30153521 1076.08777775 -382.6472168 1092.45654297 C-382.00494141 1092.91528809 -381.36266602 1093.3740332 -380.70092773 1093.84667969 C-372.60424681 1099.66317264 -364.92610574 1105.73620555 -357.6862793 1112.59326172 C-355.78386247 1114.50206065 -355.78386247 1114.50206065 -353.6472168 1115.45654297 C-353.44128664 1068.05780371 -353.28266535 1020.65911175 -353.18762883 973.26001346 C-353.17637226 967.66609873 -353.16472338 962.07218489 -353.15283203 956.47827148 C-353.15047124 955.36460835 -353.14811044 954.25094521 -353.14567811 953.10353471 C-353.10649966 935.0632847 -353.03552949 917.0232924 -352.95284163 898.98319536 C-352.86872371 880.47696455 -352.81869751 861.97086885 -352.80042034 843.46445471 C-352.78806156 832.04177189 -352.74900737 820.61981744 -352.67596859 809.19735879 C-352.62845114 801.36806483 -352.61400296 793.53914824 -352.6257044 785.70972048 C-352.63147817 781.18998376 -352.62253426 776.67152101 -352.57436752 772.15200996 C-352.53058862 768.01403714 -352.52833861 763.87819531 -352.55912674 759.74012465 C-352.56293185 758.24333186 -352.55149056 756.74640648 -352.52326816 755.24987494 C-352.18747671 747.11639485 -352.18747671 747.11639485 -355.59949696 740.08144104 C-357.8704262 738.29711276 -360.1371098 736.87551778 -362.6472168 735.45654297 C-363.84102691 734.52002447 -365.01888644 733.5621262 -366.16674805 732.56982422 C-366.97873657 731.88388184 -366.97873657 731.88388184 -367.80712891 731.18408203 C-377.79358322 722.63311598 -387.24660798 713.59405699 -395.6472168 703.45654297 C-396.11240723 702.8998291 -396.57759766 702.34311523 -397.05688477 701.76953125 C-398.71942454 699.7754046 -400.37197692 697.77335821 -402.0222168 695.76904297 C-402.59335205 695.08084473 -403.1644873 694.39264648 -403.75292969 693.68359375 C-406.40506637 690.43547555 -408.86761302 687.24061986 -410.9597168 683.60107422 C-414.59424299 677.08496262 -414.59424299 677.08496262 -420.83081055 673.42138672 C-423.3366725 673.14355703 -425.85218295 672.94531599 -428.36987305 672.81201172 C-443.23416434 671.95974133 -458.26041674 664.47638416 -471.6472168 658.45654297 C-472.34347168 658.15022949 -473.03972656 657.84391602 -473.75708008 657.52832031 C-503.30425844 644.50335552 -535.41044934 628.52504453 -548.9597168 597.51904297 C-552.79771666 586.68655738 -554.12462597 575.9383601 -553.98339844 564.49755859 C-553.95972723 562.45744226 -553.96288056 560.41863817 -553.96948242 558.37841797 C-553.94448087 546.10920749 -552.33723227 534.2463857 -549.4597168 522.33154297 C-549.14151978 521.00993164 -549.14151978 521.00993164 -548.81689453 519.66162109 C-545.46035543 506.22111538 -540.83302791 493.22302091 -534.71362305 480.79248047 C-533.50878601 478.58128775 -533.50878601 478.58128775 -533.6472168 476.45654297 C-535.2018896 475.11286658 -535.2018896 475.11286658 -537.2097168 473.76904297 C-558.97573666 457.77924278 -567.66972434 428.69959854 -571.94018555 403.14794922 C-579.16451205 355.91388701 -581.25420664 301.82878881 -552.06103516 261.20629883 C-538.00119716 242.57834305 -517.40188376 229.705506 -494.6472168 224.45654297 C-490.64780458 223.9229891 -486.67862783 223.60181904 -482.6472168 223.45654297 C-482.88504883 222.580625 -482.88504883 222.580625 -483.12768555 221.68701172 C-485.08544595 213.28189001 -482.52163753 207.41906873 -478.36206055 200.23779297 C-466.04686114 180.75302065 -446.42755651 167.34332434 -424.6472168 160.45654297 C-420.18263986 159.63674872 -415.68371502 159.30320335 -411.1472168 159.26904297 C-409.86331055 159.24777344 -409.86331055 159.24777344 -408.5534668 159.22607422 C-401.8701738 159.75606654 -396.13583829 161.86251369 -390.2097168 164.89404297 C-389.51998779 165.24329834 -388.83025879 165.59255371 -388.11962891 165.95239258 C-382.39000108 168.92698064 -377.01011621 172.32848832 -371.63549805 175.89575195 C-365.27151728 180.10674776 -358.76353265 184.04872051 -352.2097168 187.95654297 C-351.14833496 188.58963379 -350.08695312 189.22272461 -348.9934082 189.875 C-346.88879383 191.13027636 -344.78413953 192.38548579 -342.67944336 193.640625 C-335.63602594 197.85873601 -328.64253241 202.15929289 -321.6472168 206.45654297 C-321.96335937 205.54291992 -321.96335937 205.54291992 -322.28588867 204.61083984 C-322.55981445 203.80710937 -322.83374023 203.00337891 -323.1159668 202.17529297 C-323.52492188 200.98323242 -323.52492188 200.98323242 -323.94213867 199.76708984 C-325.50584192 194.64282129 -325.08039719 190.79621762 -322.8347168 186.01904297 C-317.22919789 176.77623511 -306.66829994 171.59368814 -296.6472168 168.45654297 C-292.66428598 167.58910878 -288.69424871 166.9373074 -284.6472168 166.45654297 C-284.53635742 165.19583984 -284.42549805 163.93513672 -284.3112793 162.63623047 C-283.69624182 157.14803887 -282.43394701 151.91338593 -281.0222168 146.58154297 C-280.75715332 145.57921631 -280.49208984 144.57688965 -280.21899414 143.54418945 C-273.06121587 117.1856188 -261.23938257 85.8898039 -236.7253418 70.93310547 C-222.31366375 62.80339572 -205.99614842 60.58846405 -189.7409668 64.44873047 C-173.7048771 69.09861983 -158.46107375 77.8678468 -145.6472168 88.45654297 C-145.56600586 87.78880859 -145.48479492 87.12107422 -145.40112305 86.43310547 C-144.40497621 82.50013196 -142.59798131 79.33261951 -140.5847168 75.83154297 C-140.17842041 75.12078613 -139.77212402 74.4100293 -139.35351562 73.67773438 C-131.23010768 59.68451929 -120.57798028 45.39142257 -107.6472168 35.45654297 C-107.13884277 35.05902832 -106.63046875 34.66151367 -106.10668945 34.25195312 C-87.2644029 19.60040492 -66.09299264 8.53513981 -42.6472168 3.45654297 C-41.67848633 3.24368652 -40.70975586 3.03083008 -39.71166992 2.81152344 C-36.40185628 2.09293233 -33.08833049 1.39545222 -29.7722168 0.70654297 C-28.18449463 0.3716687 -28.18449463 0.3716687 -26.56469727 0.0300293 C-25.54263184 -0.17468994 -24.52056641 -0.37940918 -23.4675293 -0.59033203 C-22.56276855 -0.7743457 -21.65800781 -0.95835938 -20.72583008 -1.14794922 C-13.60987846 -2.06213174 -6.98737851 -1.47503987 0 0 Z " fill="#FE751F" transform="translate(856.647216796875,100.54345703125)"/>
<path d="M0 0 C1254 0 2508 0 3800 0 C3800 35.64 3800 71.28 3800 108 C2546 108 1292 108 0 108 C0 72.36 0 36.72 0 0 Z " fill="#000000" transform="translate(82,1734)"/>
<path d="M0 0 C351.04150943 0 351.04150943 0 396 14 C396.8760791 14.27183105 397.7521582 14.54366211 398.65478516 14.82373047 C427.44478483 23.92969008 454.48588736 38.04434781 478 57 C478.55945312 57.44520996 479.11890625 57.89041992 479.6953125 58.34912109 C493.77713549 69.61541372 506.44088149 82.36743724 517 97 C517.41556152 97.57121582 517.83112305 98.14243164 518.25927734 98.73095703 C544.83894697 135.69379585 558.1137505 182.5394815 558.16796875 227.87109375 C558.17129715 228.87350601 558.17462555 229.87591827 558.17805481 230.90870667 C558.18308307 233.01880439 558.18546442 235.12890996 558.18530273 237.23901367 C558.18747315 240.39841521 558.20562918 243.55745758 558.22460938 246.71679688 C558.27417082 264.14101408 557.05216318 281.17190721 553.8125 298.3125 C553.60036865 299.44204102 553.3882373 300.57158203 553.16967773 301.73535156 C549.91117349 318.3169243 544.88686845 334.55883436 538 350 C537.66742187 350.74733398 537.33484375 351.49466797 536.9921875 352.26464844 C522.23587304 385.08152402 499.61381815 414.98937066 471 437 C469.49759766 438.21042969 469.49759766 438.21042969 467.96484375 439.4453125 C460.07606849 445.75851427 451.82265726 451.0872712 443 456 C442.21061035 456.43989258 441.4212207 456.87978516 440.60791016 457.33300781 C425.30023646 465.77841681 409.62720633 472.60579046 393 478 C394.52727347 483.05248959 397.60582008 486.28805589 401.0625 490.125 C402.24988504 491.46770113 403.43607826 492.81145714 404.62109375 494.15625 C405.20101074 494.81238281 405.78092773 495.46851563 406.37841797 496.14453125 C409.26102978 499.44291272 412.00090193 502.85459322 414.7578125 506.2578125 C417.30253683 509.37000148 419.89618225 512.43726497 422.5 515.5 C426.62113948 520.34948722 430.66991612 525.25161123 434.6875 530.1875 C437.26146392 533.31799666 439.87569086 536.41172461 442.5 539.5 C446.62101634 544.34959381 450.66991354 549.25160806 454.6875 554.1875 C457.26146392 557.31799666 459.87569086 560.41172461 462.5 563.5 C466.62101634 568.34959381 470.66991354 573.25160806 474.6875 578.1875 C477.26146392 581.31799666 479.87569086 584.41172461 482.5 587.5 C486.62101634 592.34959381 490.66991354 597.25160806 494.6875 602.1875 C497.26146392 605.31799666 499.87569086 608.41172461 502.5 611.5 C506.62405185 616.35316599 510.67665537 621.25812965 514.6953125 626.19921875 C517.22033075 629.26775787 519.79484769 632.29039812 522.375 635.3125 C526.15792492 639.74851603 529.80532737 644.26600643 533.375 648.875 C537.83051671 654.62027155 542.51143405 660.13095441 547.29980469 665.60058594 C551.21631957 670.07760385 555.01327067 674.63542937 558.7578125 679.2578125 C561.30253683 682.37000148 563.89618225 685.43726497 566.5 688.5 C570.62113948 693.34948722 574.66991612 698.25161123 578.6875 703.1875 C581.26146392 706.31799666 583.87569086 709.41172461 586.5 712.5 C590.62101634 717.34959381 594.66991354 722.25160806 598.6875 727.1875 C601.26146392 730.31799666 603.87569086 733.41172461 606.5 736.5 C610.62101634 741.34959381 614.66991354 746.25160806 618.6875 751.1875 C621.26146392 754.31799666 623.87569086 757.41172461 626.5 760.5 C630.62101634 765.34959381 634.66991354 770.25160806 638.6875 775.1875 C641.26146468 778.31799759 643.87572994 781.41169048 646.5 784.5 C650.62981597 789.36108548 654.69850212 794.26627072 658.71875 799.21875 C660.38979595 801.2560526 662.07445727 803.27436185 663.78125 805.28125 C664.2445874 805.82837646 664.7079248 806.37550293 665.18530273 806.93920898 C666.4963716 808.48455501 667.81250718 810.02559821 669.12890625 811.56640625 C671 814 671 814 671 816 C641.13974837 816.34257214 611.27956304 816.60784013 581.41776817 816.76597994 C577.8882094 816.78473937 574.35865452 816.80415432 570.82910156 816.82397461 C570.1264642 816.82790927 569.42382684 816.83184392 568.69989744 816.83589781 C557.33924325 816.90107708 545.97973361 817.01929146 534.61975726 817.15729194 C522.95349838 817.2978256 511.28790485 817.37981307 499.62083936 817.41132742 C493.07108479 817.43085971 486.52392119 817.47664775 479.97499847 817.58595085 C473.80504942 817.68809044 467.63874705 817.71911415 461.46803284 817.69661522 C459.20884087 817.70072814 456.94952187 817.73038917 454.69106293 817.78808212 C438.11083762 818.19070541 438.11083762 818.19070541 432.94506931 814.55288243 C429.34629644 811.10148789 426.6828239 807.19513349 424.16726923 802.91294491 C422.30966169 799.86865933 420.0966813 797.16261092 417.875 794.375 C417.05204634 793.30541237 416.23174656 792.23377778 415.4140625 791.16015625 C408.98320352 782.74176642 402.508065 774.35877414 396 766 C389.51778974 757.67443295 383.07925945 749.31663482 376.65625 740.9453125 C371.79260269 734.61309636 366.90519801 728.30009723 362 722 C355.51778974 713.67443295 349.07925945 705.31663482 342.65625 696.9453125 C337.79260269 690.61309636 332.90519801 684.30009723 328 678 C321.51778974 669.67443295 315.07925945 661.31663482 308.65625 652.9453125 C303.18874534 645.82690545 297.68750086 638.73551187 292.17285156 631.65356445 C287.96960334 626.25338365 283.79206695 620.834403 279.625 615.40625 C276.43372009 611.25758611 273.21575864 607.12969753 270 603 C263.51773201 594.6744784 257.07925899 586.31663422 250.65625 577.9453125 C245.79260269 571.61309636 240.90519801 565.30009723 236 559 C229.51778974 550.67443295 223.07925945 542.31663482 216.65625 533.9453125 C215.46515625 532.39457031 215.46515625 532.39457031 214.25 530.8125 C213.84894043 530.29018799 213.44788086 529.76787598 213.03466797 529.22973633 C210.54932887 525.99821818 208.04928457 522.77863958 205.5390625 519.56640625 C204.93288086 518.78998779 204.32669922 518.01356934 203.70214844 517.21362305 C202.52732141 515.70992608 201.35101039 514.20738673 200.17285156 512.70629883 C195.63333237 506.8947383 191.34573021 500.97537904 187 495 C186.505 653.895 186.505 653.895 186 816 C124.62 816 63.24 816 0 816 C0 546.72 0 277.44 0 0 Z " fill="#000000" transform="translate(2019,861)"/>
<path d="M0 0 C57.75 0 115.5 0 175 0 C175 280.83 175 561.66 175 851 C117.91 851 60.82 851 2 851 C2 832.19 2 813.38 2 794 C-2.13152552 796.47891531 -3.91318286 797.75861178 -6.8125 801.25 C-10.58355074 805.61093577 -14.57973812 809.31387253 -19 813 C-19.86109375 813.74894531 -20.7221875 814.49789062 -21.609375 815.26953125 C-48.6001653 838.43054725 -81.1906901 854.61010912 -116.10449219 861.43261719 C-118.01177628 861.80635481 -119.91626731 862.19468695 -121.81738281 862.59863281 C-169.46672229 872.58619591 -222.52427438 866.04578254 -267 847 C-267.8034082 846.65743164 -268.60681641 846.31486328 -269.43457031 845.96191406 C-303.55728821 831.1685095 -335.13971667 806.31638466 -358 777 C-358.86660302 775.9333603 -359.73518803 774.86832866 -360.60546875 773.8046875 C-408.43687409 714.88946193 -425.15998845 638.29467883 -417.86865234 563.76586914 C-414.41435707 530.76775156 -405.74951845 498.79429569 -391 469 C-390.49968262 467.98873047 -390.49968262 467.98873047 -389.98925781 466.95703125 C-379.37452731 445.79094178 -365.65562619 426.71241007 -350 409 C-349.2889209 408.1941748 -349.2889209 408.1941748 -348.56347656 407.37207031 C-312.15744313 366.39400329 -265.13650686 341.90250966 -211.625 331.75 C-210.78283936 331.58669189 -209.94067871 331.42338379 -209.07299805 331.25512695 C-195.06194967 328.72128575 -180.82040418 328.8135163 -166.63110352 328.81469727 C-163.7024886 328.81251119 -160.77425188 328.79428132 -157.84570312 328.77539062 C-141.60249298 328.72516933 -125.93090105 329.94895276 -110.0625 333.5625 C-108.92699707 333.8207959 -107.79149414 334.0790918 -106.62158203 334.34521484 C-79.602767 340.73080403 -52.65431841 350.63123478 -30 367 C-29.03658691 367.68811768 -29.03658691 367.68811768 -28.05371094 368.39013672 C-19.95703002 374.20662967 -12.27888895 380.27966258 -5.0390625 387.13671875 C-3.13664568 389.04551768 -3.13664568 389.04551768 -1 390 C-0.67 261.3 -0.34 132.6 0 0 Z " fill="#000000" transform="translate(504,826)"/>
<path d="M0 0 C2.92861491 -0.00218608 5.85685164 -0.02041594 8.78540039 -0.03930664 C25.02861054 -0.08952794 40.70020246 1.1342555 56.56860352 4.74780273 C57.70410645 5.00609863 58.83960937 5.26439453 60.00952148 5.53051758 C87.02126947 11.91443654 113.98845849 21.80858817 136.63110352 38.18530273 C137.27869629 38.64936523 137.92628906 39.11342773 138.59350586 39.59155273 C146.32581643 45.1662202 153.76161156 50.91035848 160.71313477 57.44311523 C162.71659458 59.3498007 162.71659458 59.3498007 165.63110352 61.18530273 C165.96110352 46.00530273 166.29110352 30.82530273 166.63110352 15.18530273 C224.38110352 15.18530273 282.13110352 15.18530273 341.63110352 15.18530273 C341.63110352 182.49530273 341.63110352 349.80530273 341.63110352 522.18530273 C284.54110352 522.18530273 227.45110352 522.18530273 168.63110352 522.18530273 C168.63110352 503.37530273 168.63110352 484.56530273 168.63110352 465.18530273 C164.49957799 467.66421805 162.71792065 468.94391452 159.81860352 472.43530273 C156.04755277 476.79623851 152.05136539 480.49917526 147.63110352 484.18530273 C146.77000977 484.93424805 145.90891602 485.68319336 145.02172852 486.45483398 C118.03093822 509.61584998 85.44041342 525.79541185 50.52661133 532.61791992 C48.61932724 532.99165755 46.71483621 533.37998969 44.8137207 533.78393555 C15.52750312 539.9224875 -16.95865967 539.39184599 -46.36889648 534.18530273 C-47.19035156 534.04608398 -48.01180664 533.90686523 -48.8581543 533.76342773 C-97.43816764 525.31132715 -139.21787597 501.03764022 -174.36889648 467.18530273 C-175.16295898 466.43249023 -175.95702148 465.67967773 -176.77514648 464.90405273 C-182.12447825 459.72454102 -186.73053202 453.99959059 -191.36889648 448.18530273 C-192.03920898 447.37061523 -192.70952148 446.55592773 -193.40014648 445.71655273 C-222.26457718 410.4378041 -239.64974877 368.79281237 -247.80395508 324.26879883 C-248.17099397 322.26547074 -248.54341375 320.26311836 -248.92211914 318.26196289 C-262.09188991 248.02726911 -247.04037731 169.74558345 -207.25952148 110.48608398 C-199.7260228 99.53086353 -191.43127734 89.3149883 -182.46264648 79.50170898 C-180.66854665 77.51681868 -178.95488068 75.49110262 -177.24389648 73.43530273 C-166.73498853 61.45611179 -154.2340677 51.49334087 -141.36889648 42.18530273 C-140.47364258 41.52884766 -140.47364258 41.52884766 -139.56030273 40.85913086 C-114.91296574 22.94649706 -86.13443611 11.14608784 -56.36889648 5.18530273 C-55.44270508 4.99597168 -54.51651367 4.80664062 -53.56225586 4.61157227 C-50.70921226 4.03542082 -47.85308189 3.48011022 -44.99389648 2.93530273 C-43.73005127 2.69009888 -43.73005127 2.69009888 -42.44067383 2.43994141 C-28.42960237 -0.09242402 -14.1891334 -0.00118095 0 0 Z " fill="#000000" transform="translate(2943.368896484375,1154.814697265625)"/>
<path d="M0 0 C1.82845459 0.00406357 1.82845459 0.00406357 3.69384766 0.00820923 C22.55596823 0.07160328 40.75306973 0.92174985 59.3125 4.4375 C60.40804199 4.63537109 61.50358398 4.83324219 62.63232422 5.03710938 C74.37206851 7.18328952 85.91804307 9.76887912 97.19677734 13.70117188 C98.70166994 14.22491479 100.21024015 14.73814195 101.72119141 15.24414062 C136.55897182 26.92927159 166.95208986 44.65293514 194.03515625 69.3828125 C195.9862616 71.14315798 197.97263544 72.82934323 200 74.5 C203.86263196 77.7980245 207.04355543 81.56319532 210.3125 85.4375 C211.14910156 86.38625 211.98570312 87.335 212.84765625 88.3125 C223.34161002 100.28687421 231.77218804 113.42971562 239.3125 127.4375 C239.63959961 128.04110352 239.96669922 128.64470703 240.30371094 129.26660156 C256.45492048 159.37875905 264.03699836 191.7963127 268.3125 225.4375 C268.43399414 226.33436523 268.55548828 227.23123047 268.68066406 228.15527344 C270.53397869 242.10215754 270.49137964 256.08055768 270.5 270.125 C270.50108765 271.10421417 270.50217529 272.08342834 270.5032959 273.09231567 C270.50294269 275.89886245 270.49381194 278.70520628 270.48046875 281.51171875 C270.47864845 282.79461288 270.47864845 282.79461288 270.47679138 284.10342407 C270.45013246 287.45945552 270.38094758 290.23215727 269.3125 293.4375 C147.8725 293.4375 26.4325 293.4375 -98.6875 293.4375 C-97.61834482 312.00191724 -97.61834482 312.00191724 -93.5625 329.5625 C-93.25538086 330.50714111 -92.94826172 331.45178223 -92.63183594 332.42504883 C-88.01879855 346.02094081 -80.85590119 356.40407759 -70.6875 366.4375 C-70.01976562 367.10394531 -69.35203125 367.77039062 -68.6640625 368.45703125 C-57.07253823 379.29046005 -41.57913751 386.61517159 -26.6875 391.75 C-26.00083252 391.99250488 -25.31416504 392.23500977 -24.60668945 392.48486328 C-12.12818686 396.57736094 0.69942914 396.76139488 13.68945312 396.69824219 C16.30882912 396.68751503 18.92751957 396.69820316 21.546875 396.7109375 C57.57992999 396.74261201 87.96880199 385.01876751 114.3125 360.4375 C115.60016902 359.3286739 116.8916964 358.22430879 118.1875 357.125 C122.91344794 353.02139911 127.27851456 348.55355145 131.6758728 344.10488892 C132.54595978 343.22465057 133.41604675 342.34441223 134.3125 341.4375 C149.26515741 348.42009997 164.03999731 355.73525949 178.79296875 363.12890625 C181.1871119 364.32691285 183.58133448 365.52475937 185.97566223 366.72239685 C191.57864559 369.52542541 197.18060879 372.33048622 202.78218204 375.1363315 C209.17346726 378.33761715 215.56592657 381.53655509 221.95847166 384.73532403 C235.07776274 391.30015682 248.19562213 397.86784674 261.3125 404.4375 C260.36650768 406.19310213 259.41792507 407.94730866 258.46826172 409.70092773 C257.94029999 410.67795151 257.41233826 411.65497528 256.86837769 412.66160583 C254.93314017 416.11432874 252.78391471 419.31813753 250.4375 422.5 C249.79035034 423.38957397 249.79035034 423.38957397 249.13012695 424.29711914 C236.60873983 441.39402884 222.69221682 457.9848761 206.08203125 471.2265625 C204.26730999 472.67526804 202.47194774 474.14863988 200.69921875 475.6484375 C193.29829071 481.89811006 185.48626284 487.26711978 177.3125 492.4375 C176.67103027 492.84613281 176.02956055 493.25476562 175.36865234 493.67578125 C157.69560402 504.82373664 138.53799343 513.24058389 118.68310547 519.66552734 C116.34411357 520.42720524 114.01782017 521.22036636 111.69140625 522.01953125 C93.08608036 528.29408348 73.72028836 531.7056762 54.3125 534.4375 C53.6225293 534.53659668 52.93255859 534.63569336 52.22167969 534.73779297 C-26.97628938 545.96792105 -107.4755705 530.91357241 -172.11108398 482.45825195 C-174.67269405 480.49489308 -177.18421685 478.47451773 -179.6875 476.4375 C-180.19619629 476.025 -180.70489258 475.6125 -181.22900391 475.1875 C-194.20474337 464.61019638 -206.92500386 453.28546252 -217.6875 440.4375 C-218.16219727 439.87514648 -218.63689453 439.31279297 -219.12597656 438.73339844 C-239.56478574 414.42813126 -255.46887701 388.23545402 -266.6875 358.4375 C-266.99123535 357.63795898 -267.2949707 356.83841797 -267.60791016 356.01464844 C-272.28580785 343.49542136 -275.30623702 330.57443203 -277.6875 317.4375 C-277.81458344 316.77110504 -277.94166687 316.10471008 -278.07260132 315.41812134 C-280.69048376 301.43902217 -281.18450846 287.6876021 -281.13354492 273.48608398 C-281.12506754 269.90354196 -281.15386609 266.32261909 -281.18554688 262.74023438 C-281.35967067 206.03294583 -261.25162984 149.9100599 -224.6875 106.4375 C-224.22649902 105.87643555 -223.76549805 105.31537109 -223.29052734 104.73730469 C-216.31460411 96.25416429 -208.80131848 88.35263691 -201.0625 80.5625 C-200.20414551 79.69488037 -199.34579102 78.82726074 -198.46142578 77.93334961 C-192.51278932 72.01361203 -186.26741812 66.64167365 -179.6875 61.4375 C-178.9764209 60.86708984 -178.2653418 60.29667969 -177.53271484 59.70898438 C-154.62020958 41.42440768 -129.08487979 26.89271702 -101.6875 16.4375 C-100.65689453 16.04038818 -100.65689453 16.04038818 -99.60546875 15.63525391 C-89.68582029 11.8869355 -79.4838579 9.24882177 -69.1875 6.75 C-68.04498779 6.46439209 -66.90247559 6.17878418 -65.7253418 5.88452148 C-44.10831303 0.8347812 -22.11621013 -0.11613587 0 0 Z " fill="#000000" transform="translate(1042.6875,1154.5625)"/>
<path d="M0 0 C68.64 0 137.28 0 208 0 C218.3828686 22.95160427 228.75200821 45.89161622 238.9609375 68.91796875 C243.33379664 78.77399556 247.75856023 88.60657468 252.1875 98.4375 C252.57010986 99.28683105 252.95271973 100.13616211 253.34692383 101.01123047 C254.85353568 104.35549337 256.36023552 107.6997166 257.86712646 111.04385376 C266.84937898 130.98020238 275.76656521 150.94581711 284.69458008 170.90649414 C290.60236492 184.11422387 296.51881672 197.31804561 302.43945312 210.52001953 C304.583136 215.30037869 306.72620752 220.08101167 308.86889648 224.86181641 C309.94591535 227.26411173 311.02354011 229.66613552 312.10180664 232.06787109 C314.65218788 237.75046959 317.19617613 243.43559483 319.71957397 249.13021851 C320.9174999 251.83263704 322.11877008 254.53356284 323.3203125 257.234375 C323.89442127 258.52741277 324.46687431 259.82118706 325.03759766 261.11572266 C325.82691345 262.90580312 326.62229637 264.69320466 327.41796875 266.48046875 C327.86938232 267.50035889 328.3207959 268.52024902 328.78588867 269.57104492 C329.89074402 272.10163881 329.89074402 272.10163881 332 274 C340.39597503 255.74347873 348.72353146 237.45997756 356.86083984 219.08654785 C362.19715346 207.03792713 367.5832621 195.01267387 373 183 C378.68462517 170.39197338 384.33429851 157.76941761 389.9375 145.125 C396.12765772 131.15682848 402.40767262 117.23075401 408.71697998 103.31604004 C414.54081756 90.46922756 420.31013336 77.59978477 426.02453613 64.70394897 C432.3168782 50.50540821 438.68085311 36.3396444 445.06274414 22.18115234 C445.42930618 21.36783951 445.79586823 20.55452667 446.17353821 19.71656799 C446.85236944 18.21069587 447.531453 16.70493746 448.21086121 15.19932556 C450.49200923 10.14063333 452.74615032 5.07116179 455 0 C523.64 0 592.28 0 663 0 C661.57652341 3.55869147 660.13825107 6.8046371 658.3828125 10.18359375 C657.86501221 11.18124756 657.34721191 12.17890137 656.8137207 13.20678711 C656.25644287 14.27292236 655.69916504 15.33905762 655.125 16.4375 C654.54129639 17.55713135 653.95759277 18.6767627 653.35620117 19.83032227 C649.28091839 27.61992633 645.10926378 35.35122397 640.87353516 43.05444336 C636.15743942 51.65487595 631.57756953 60.3253721 627 69 C621.58415561 79.26123993 616.12806284 89.49486072 610.54248047 99.66503906 C606.1644543 107.65527337 601.89167495 115.69996825 597.625 123.75 C591.84242976 134.65938014 586.02852978 145.55062932 580.16625977 156.41748047 C575.95195127 164.22969239 571.75263714 172.04979692 567.5625 179.875 C566.93972168 181.03805664 566.31694336 182.20111328 565.67529297 183.39941406 C564.41379667 185.75547868 563.15243054 188.11161296 561.89111328 190.46777344 C558.76209039 196.31257107 555.63087309 202.15619333 552.5 208 C551.24999097 210.33332849 549.99999097 212.66666183 548.75 215 C546.25 219.66666667 543.75 224.33333333 541.25 229 C540.63116943 230.15516113 540.01233887 231.31032227 539.37475586 232.50048828 C538.1256058 234.83221337 536.87641964 237.16391912 535.62719727 239.49560547 C532.8047512 244.76382813 529.98255876 250.0321857 527.16183472 255.30133057 C520.21310272 268.28158254 513.25145182 281.25470227 506.26708984 294.21582031 C500.12216887 305.62264245 494.00610914 317.04489102 487.89111328 328.46777344 C484.76209039 334.31257107 481.63087309 340.15619333 478.5 346 C477.24999097 348.33332849 475.99999097 350.66666183 474.75 353 C456 388 456 388 437.25 423 C436.63116943 424.15516113 436.01233887 425.31032227 435.37475586 426.50048828 C434.1256058 428.83221337 432.87641964 431.16391912 431.62719727 433.49560547 C428.48889587 439.35338634 425.35121651 445.21149885 422.21484375 451.0703125 C419.10119825 456.88661815 415.9847578 462.70142216 412.8671875 468.515625 C411.28164349 471.47442261 409.69804214 474.43424351 408.11534119 477.39456177 C407.1658069 479.1696342 406.21510421 480.94407506 405.26391602 482.71826172 C404.08803441 484.91158506 402.91390343 487.1058483 401.74194336 489.30126953 C401.20706299 490.29755371 400.67218262 491.29383789 400.12109375 492.3203125 C399.6614624 493.17898926 399.20183105 494.03766602 398.72827148 494.92236328 C398.15794189 495.9379834 397.5876123 496.95360352 397 498 C396.46706502 499.2090673 396.46706502 499.2090673 395.92336369 500.4425602 C392.49139336 507.42389731 392.49139336 507.42389731 388.56929684 508.93894386 C385.50586945 509.30513268 382.57525385 509.35167445 379.49023438 509.29394531 C378.33832108 509.31146851 377.18640778 509.3289917 375.99958801 509.3470459 C372.19610405 509.39102138 368.39728012 509.36194473 364.59375 509.328125 C361.9486807 509.33486194 359.30361744 509.34456769 356.65856934 509.3571167 C351.11675641 509.37528738 345.57627802 509.35139887 340.03466797 509.30371094 C333.6363391 509.24928479 327.24119629 509.26691529 320.84294462 509.32197499 C314.67663195 509.37290543 308.51172683 509.36741332 302.34529114 509.33815765 C299.72662407 509.33148796 297.10787564 509.33966971 294.48930359 509.36295319 C290.82726923 509.38836905 287.17134464 509.34964617 283.50976562 509.29394531 C282.42802567 509.31418762 281.34628571 509.33442993 280.23176575 509.35528564 C277.17666488 509.26921131 274.85465128 509.09963583 272 508 C269.2570097 504.96654239 267.64551277 501.71713583 266 498 C265.29668503 496.69159616 264.58473931 495.38771413 263.85693359 494.09277344 C263.20128469 492.84978906 262.54849887 491.60529067 261.8984375 490.359375 C261.54020905 489.67901184 261.18198059 488.99864868 260.81289673 488.29766846 C260.05492197 486.85775198 259.29813171 485.4172114 258.54248047 483.97607422 C256.54263989 480.16291102 254.53313901 476.35484796 252.5234375 472.546875 C252.1278363 471.79700317 251.73223511 471.04713135 251.324646 470.27453613 C248.26771125 464.48789233 245.15486754 458.73387333 242 453 C236.89826585 443.71985721 231.94305289 434.36523559 227 425 C222.03511678 415.59372732 217.05778618 406.1979712 211.9375 396.875 C207.08631444 388.0420048 202.3442487 379.15391285 197.625 370.25 C191.84242976 359.34061986 186.02852978 348.44937068 180.16625977 337.58251953 C174.05040518 326.24534472 167.97065286 314.88890209 161.89111328 303.53222656 C158.76209039 297.68742893 155.63087309 291.84380667 152.5 286 C151.24999097 283.66667151 149.99999097 281.33333817 148.75 279 C148.13125 277.845 147.5125 276.69 146.875 275.5 C126.25 236.99999999 126.25 236.99999999 124.37475586 233.49951172 C123.1256058 231.16778663 121.87641964 228.83608088 120.62719727 226.50439453 C117.8047512 221.23617187 114.98255876 215.9678143 112.16183472 210.69866943 C105.78780208 198.79195757 99.40671759 186.88916372 93 175 C86.27597878 162.52200514 79.58080598 150.02864926 72.89111328 137.53222656 C69.76209039 131.68742893 66.63087309 125.84380667 63.5 120 C62.24999097 117.66667151 60.99999097 115.33333817 59.75 113 C58.821875 111.2675 58.821875 111.2675 57.875 109.5 C37.25 71 37.25 71 35.37402344 67.49804688 C34.12742325 65.17114648 32.8806791 62.84432321 31.63378906 60.51757812 C28.78156608 55.19482013 25.93048668 49.87147224 23.08506775 44.54507446 C21.79219412 42.12504342 20.49865529 39.70536847 19.2048645 37.28582764 C18.26188767 35.52223282 17.31929586 33.75843217 16.37670898 31.99462891 C12.0454037 23.9063733 7.64831334 15.85663115 3.14746094 7.86132812 C2.72883789 7.11044922 2.31021484 6.35957031 1.87890625 5.5859375 C1.5135376 4.9367334 1.14816895 4.2875293 0.77172852 3.61865234 C0 2 0 2 0 0 Z " fill="#000000" transform="translate(1316,1169)"/>
<path d="M0 0 C57.75 0 115.5 0 175 0 C175 281.16 175 562.32 175 852 C117.25 852 59.5 852 0 852 C0 570.84 0 289.68 0 0 Z " fill="#000000" transform="translate(3703,825)"/>
<path d="M0 0 C393.03 0 786.06 0 1191 0 C1191 35.64 1191 71.28 1191 108 C797.97 108 404.94 108 0 108 C0 72.36 0 36.72 0 0 Z " fill="#000000" transform="translate(748,941)"/>
<path d="M0 0 C57.75 0 115.5 0 175 0 C175 167.64 175 335.28 175 508 C117.25 508 59.5 508 0 508 C0 340.36 0 172.72 0 0 Z " fill="#000000" transform="translate(3404,1169)"/>
<path d="M0 0 C7.451634 6.19481428 14.44143296 12.744698 21.25146484 19.63525391 C22.86412994 21.26640156 24.48488171 22.8891777 26.10693359 24.51098633 C31.07231309 29.49391534 35.91134712 34.53426888 40.48876953 39.88037109 C44.57288682 44.50890309 49.34842325 48.48993634 53.97412109 52.5637207 C54.93576172 53.41321289 55.89740234 54.26270508 56.88818359 55.13793945 C79.73349011 74.75041958 105.18507553 86.63483939 135.59912109 86.8762207 C136.79408203 86.90522461 137.98904297 86.93422852 139.22021484 86.96411133 C152.72447573 87.05921176 164.72252125 83.4572755 175.15771484 74.73950195 C181.70854983 68.23820069 184.19337519 60.14822037 186.97412109 51.5637207 C189.97412109 51.5637207 189.97412109 51.5637207 192.07568359 53.59106445 C192.90841797 54.55141602 193.74115234 55.51176758 194.59912109 56.5012207 C206.01139125 69.33145612 217.95148747 81.5852322 231.97412109 91.5637207 C232.65023438 92.04647461 233.32634766 92.52922852 234.02294922 93.02661133 C258.10641229 110.03569359 286.22555109 125.56705046 316.73583984 121.1652832 C323.6234733 119.31415659 329.4565276 114.36855832 333.35693359 108.47387695 C334.36312814 106.53229414 335.205275 104.60970557 335.97412109 102.5637207 C336.36599609 101.5530957 336.75787109 100.5424707 337.16162109 99.5012207 C338.7601747 93.7218346 339.09656812 88.07345517 339.07177734 82.09887695 C339.0703624 81.42070419 339.06894745 80.74253143 339.06748962 80.04380798 C339.06194854 77.90456492 339.04940762 75.76543145 339.03662109 73.6262207 C339.03159846 72.16463369 339.0270369 70.70304501 339.02294922 69.24145508 C339.01199854 65.68217544 338.99477554 62.12295879 338.97412109 58.5637207 C341.83041725 59.89568658 344.20772292 61.40135341 346.66943359 63.36450195 C347.37543701 63.92258545 348.08144043 64.48066895 348.80883789 65.05566406 C349.94252808 65.9568396 349.94252808 65.9568396 351.09912109 66.8762207 C380.26500443 89.76176233 411.70490582 112.30988551 446.97412109 124.5637207 C448.02599609 124.94141602 449.07787109 125.31911133 450.16162109 125.70825195 C459.29799975 128.61648876 470.1304953 129.22674926 479.14599609 125.5871582 C485.97403193 121.76462532 487.78898145 114.59833694 489.97412109 107.5637207 C490.43303448 105.8555431 490.89139328 104.14721638 491.34912109 102.4387207 C494.09395188 93.2114172 500.14299691 86.04427049 507.97412109 80.5637207 C517.79675274 75.25621045 528.09011379 75.20771978 538.66162109 78.2512207 C554.11332222 83.59346551 567.55935477 92.69967584 575.50537109 107.39575195 C576.77195395 110.08724052 577.90626322 112.78815489 578.97412109 115.5637207 C579.40724609 116.6568457 579.84037109 117.7499707 580.28662109 118.8762207 C583.21223843 134.56816825 579.69977179 149.36000021 570.97412109 162.5637207 C554.67425371 183.8268695 528.14544776 195.50620373 502.07568359 199.09887695 C493.09617656 200.18686578 481.67358804 201.21886166 474.16162109 195.3762207 C473.43974609 194.7780957 472.71787109 194.1799707 471.97412109 193.5637207 C469.24978748 193.54069813 469.24978748 193.54069813 466.97412109 194.5637207 C465.0683838 198.37519528 465.38379014 202.42036981 465.97412109 206.5637207 C471.84776437 222.00355824 482.12784497 228.86569716 496.38427734 235.9855957 C503.90966955 239.29382035 511.5033461 241.22847656 519.53662109 242.8762207 C523.68432062 243.76346134 527.82955429 244.6619658 531.97412109 245.5637207 C532.93833984 245.77335449 533.90255859 245.98298828 534.89599609 246.19897461 C593.28575008 259.15121 593.28575008 259.15121 609.97412109 277.5637207 C587.96560814 293.59334021 558.07168448 302.71166774 530.92333984 299.1027832 C509.61276523 295.27723127 492.153268 284.61276063 476.97412109 269.5637207 C476.11302734 268.75161133 475.25193359 267.93950195 474.36474609 267.1027832 C460.98907811 254.26712666 451.59691681 238.8621111 442.97412109 222.5637207 C442.87615234 223.2649707 442.77818359 223.9662207 442.67724609 224.6887207 C441.15277579 234.36122197 438.83909152 240.76383675 431.10302734 247.0324707 C420.01889493 255.0049109 407.51224624 256.11949964 394.22412109 256.0012207 C393.49935577 255.99817932 392.77459045 255.99513794 392.02786255 255.99200439 C379.01182122 255.91161104 366.66868395 254.5302396 353.97412109 251.5637207 C352.98089844 251.3387793 351.98767578 251.11383789 350.96435547 250.88208008 C321.39360285 244.11825954 292.34564235 234.6024047 268.97412109 214.5637207 C268.30251953 214.03649414 267.63091797 213.50926758 266.93896484 212.96606445 C249.9817447 199.24521237 240.11839382 177.77928717 236.97412109 156.5637207 C236.24708984 157.81475586 236.24708984 157.81475586 235.50537109 159.09106445 C227.46832526 172.58402793 219.06402926 182.69369534 203.41162109 187.5012207 C177.23034821 193.45151 149.49592421 177.64657758 127.99951172 164.34155273 C107.8636443 151.61038885 88.96028725 136.52150116 71.671875 120.15991211 C69.82068712 118.41946541 67.95178288 116.69951271 66.07958984 114.98168945 C54.30301202 104.15058159 54.30301202 104.15058159 49.68505859 98.58325195 C47.50086308 96.00510337 45.16927339 93.58265702 42.84912109 91.1262207 C31.04465511 78.39872958 21.21522009 64.03114207 11.96630859 49.3840332 C-0.29416495 30.27357849 -16.34155266 17.15476623 -38.83837891 11.6887207 C-57.06262443 8.52833752 -75.15879586 10.35528053 -93.02587891 14.5637207 C-91.91212891 15.67553711 -91.91212891 15.67553711 -90.77587891 16.80981445 C-89.41462891 18.17299805 -89.41462891 18.17299805 -88.02587891 19.5637207 C-87.00494141 20.57112305 -87.00494141 20.57112305 -85.96337891 21.59887695 C-75.76940383 32.26555652 -72.63260034 45.4987898 -72.71337891 59.8762207 C-72.72183838 61.46019653 -72.72183838 61.46019653 -72.73046875 63.07617188 C-72.98559018 79.82451473 -76.5688919 94.79320485 -82.02587891 110.5637207 C-81.03483154 110.85504883 -80.04378418 111.14637695 -79.02270508 111.4465332 C-41.45114732 122.52958098 -41.45114732 122.52958098 -27.02587891 129.5637207 C-26.36974609 129.87873535 -25.71361328 130.19375 -25.03759766 130.51831055 C-6.27045072 139.64739854 12.95296886 152.38043242 20.14990234 172.91918945 C21.06318331 176.95753607 21.23555331 180.57186374 21.16162109 184.6887207 C21.1606543 185.72319336 21.1606543 185.72319336 21.15966797 186.77856445 C21.13565279 189.56966237 21.04218016 192.2309875 20.48193359 194.9699707 C16.49989803 215.30898314 23.25647413 234.28615223 33.73193359 251.44262695 C41.37148398 262.79535416 51.88339647 274.89193508 63.97412109 281.5637207 C67.2874806 281.83028388 67.2874806 281.83028388 70.84912109 281.3137207 C72.25732563 281.18037056 73.66625774 281.05456857 75.07568359 280.93481445 C75.8481543 280.86891113 76.620625 280.80300781 77.41650391 280.73510742 C90.0855548 279.8861504 103.60173192 279.43938 115.97412109 282.5637207 C117.63894531 282.94850586 117.63894531 282.94850586 119.33740234 283.34106445 C136.55049917 287.7242902 150.74183044 297.05934675 160.50927734 312.0090332 C165.58434476 320.85995078 168.15336223 328.20487508 168.16162109 338.3137207 C168.17386719 339.0871582 168.18611328 339.8605957 168.19873047 340.6574707 C168.20066406 341.42575195 168.20259766 342.1940332 168.20458984 342.9855957 C168.20869873 343.67234375 168.21280762 344.3590918 168.21704102 345.06665039 C167.87060095 348.62784539 166.84191514 352.09254453 165.97412109 355.5637207 C108.22412109 355.5637207 50.47412109 355.5637207 -9.02587891 355.5637207 C-9.02587891 355.2337207 -9.02587891 354.9037207 -9.02587891 354.5637207 C39.48412109 354.5637207 87.99412109 354.5637207 137.97412109 354.5637207 C133.54776558 340.07209878 133.54776558 340.07209878 123.03662109 330.8137207 C104.21468293 321.40275162 83.41653444 323.27775863 63.97412109 329.5637207 C57.06140309 332.166505 50.31083972 335.11891066 43.57177734 338.13793945 C37.58097378 340.80228226 31.65469862 343.41656039 24.97412109 342.5637207 C19.38392759 339.6042065 16.9140081 336.40839773 14.94677734 330.4543457 C10.9186216 314.34172275 8.59842853 297.9548197 6.62719727 281.47753906 C0.84937882 226.26296923 0.84937882 226.26296923 -27.02587891 180.5637207 C-34.02414646 175.1711742 -42.61039586 173.60286425 -51.02587891 171.5637207 C-87.93612974 162.46119272 -87.93612974 162.46119272 -97.87744141 147.60668945 C-104.88030536 135.14921378 -102.10800935 121.45912193 -99.50537109 108.08178711 C-95.66567308 87.95344164 -95.66567308 87.95344164 -94.02587891 67.5637207 C-94.00009766 66.75757324 -93.97431641 65.95142578 -93.94775391 65.12084961 C-92.88487775 41.08119916 -92.88487775 41.08119916 -102.02587891 19.5637207 C-105.85157742 15.52299464 -109.9112699 12.80915881 -115.02587891 10.5637207 C-103.29963435 -3.80092887 -88.8346169 -12.59230256 -71.02587891 -17.4362793 C-70.15576172 -17.68120117 -69.28564453 -17.92612305 -68.38916016 -18.1784668 C-43.75361658 -24.12357318 -19.052217 -15.33984779 0 0 Z " fill="#BF5818" transform="translate(513.02587890625,470.436279296875)"/>
<path d="M0 0 C223.41 0 446.82 0 677 0 C677 35.64 677 71.28 677 108 C453.59 108 230.18 108 0 108 C0 72.36 0 36.72 0 0 Z " fill="#000000" transform="translate(2616,941)"/>
<path d="M0 0 C1.52947266 0.67675781 1.52947266 0.67675781 3.08984375 1.3671875 C22.09703504 10.20890329 38.72846221 25.37440905 50 43 C50.78890625 44.17175781 50.78890625 44.17175781 51.59375 45.3671875 C68.56489785 71.77637166 71.8566484 106.98299025 65.90673828 137.19506836 C59.46885694 166.46773168 42.71812477 193.30484781 17.46484375 209.91015625 C8.35579306 215.51030349 -1.13050109 219.92812284 -11.25 223.375 C-11.94569092 223.61371826 -12.64138184 223.85243652 -13.3581543 224.09838867 C-24.57631449 227.71314371 -35.72132685 228.34863656 -47.40722656 228.31567383 C-49.73290377 228.31252316 -52.05729219 228.33602937 -54.3828125 228.36132812 C-75.66887165 228.45046596 -95.38218922 223.28905472 -114 213 C-114.99 212.45472656 -115.98 211.90945313 -117 211.34765625 C-141.52573817 196.76767527 -158.34725266 170.90515671 -165.609375 143.71875 C-168.25467373 132.65659168 -169.36693754 121.60851119 -169.3125 110.25 C-169.30758545 109.02498779 -169.3026709 107.79997559 -169.29760742 106.5378418 C-169.1751911 97.02891849 -168.29660839 88.21444098 -166 79 C-165.8443457 78.32533691 -165.68869141 77.65067383 -165.52832031 76.95556641 C-159.05890217 49.28944191 -140.66197984 23.76333529 -116.77124023 8.36791992 C-105.63653058 1.54080923 -93.68645417 -3.8436346 -81 -7 C-79.88625 -7.29777344 -78.7725 -7.59554688 -77.625 -7.90234375 C-52.18795738 -13.74963003 -23.61288723 -11.09554795 0 0 Z " fill="#FEFEFE" transform="translate(3046,1314)"/>
<path d="M0 0 C1.52947266 0.67675781 1.52947266 0.67675781 3.08984375 1.3671875 C29.188693 13.50778229 50.63920261 37.2419497 60.79882812 64.11279297 C62.09287321 68.02293368 63.06420749 71.99236687 64 76 C64.3196875 77.01578125 64.639375 78.0315625 64.96875 79.078125 C73.34740447 108.31470996 68.33601314 142.99054058 54.1640625 169.63525391 C39.52288604 195.71850976 16.95575674 213.76762916 -11.25 223.375 C-11.94569092 223.61371826 -12.64138184 223.85243652 -13.3581543 224.09838867 C-24.57631449 227.71314371 -35.72132685 228.34863656 -47.40722656 228.31567383 C-49.73290377 228.31252316 -52.05729219 228.33602937 -54.3828125 228.36132812 C-75.66887165 228.45046596 -95.38218922 223.28905472 -114 213 C-114.99 212.45472656 -115.98 211.90945313 -117 211.34765625 C-141.52573817 196.76767527 -158.34725266 170.90515671 -165.609375 143.71875 C-168.25467373 132.65659168 -169.36693754 121.60851119 -169.3125 110.25 C-169.30758545 109.02498779 -169.3026709 107.79997559 -169.29760742 106.5378418 C-169.1751911 97.02891849 -168.29660839 88.21444098 -166 79 C-165.8443457 78.32533691 -165.68869141 77.65067383 -165.52832031 76.95556641 C-159.05890217 49.28944191 -140.66197984 23.76333529 -116.77124023 8.36791992 C-105.63653058 1.54080923 -93.68645417 -3.8436346 -81 -7 C-79.88625 -7.29777344 -78.7725 -7.59554688 -77.625 -7.90234375 C-52.18795738 -13.74963003 -23.61288723 -11.09554795 0 0 Z " fill="#FEFEFE" transform="translate(440,1314)"/>
<path d="M0 0 C19.8678382 16.7485595 34.94962696 39.77932417 38.0390625 66.02197266 C40.40708274 93.84072894 35.59461539 121.21319074 17.84765625 143.51953125 C16.39107291 145.13607216 14.9094527 146.73085778 13.390625 148.2890625 C11.13442907 150.5518089 11.13442907 150.5518089 8.88671875 153.4375 C6.19202686 156.70394958 3.15182151 159.2875787 -0.1875 161.875 C-1.10221069 162.58499146 -1.10221069 162.58499146 -2.03540039 163.30932617 C-25.84510431 181.39198797 -53.12426939 187.8330988 -82.74560547 184.125 C-110.16204308 179.55638689 -134.28472638 163.77241361 -150.80859375 141.5234375 C-167.33715377 118.02611129 -173.37705591 89.78150689 -168.67089844 61.4934082 C-165.13411516 43.25039428 -156.68951777 27.63711402 -144.75 13.5 C-144.12222656 12.736875 -143.49445312 11.97375 -142.84765625 11.1875 C-106.76582941 -31.31379296 -42.30544795 -33.83290898 0 0 Z " fill="#000000" transform="translate(3559.75,878.5)"/>
<path d="M0 0 C78.14911228 0 78.14911228 0 97.4375 5.25 C98.61562256 5.5586499 99.79374512 5.8672998 101.00756836 6.18530273 C127.07959019 13.17839717 148.01681613 23.76829524 162.15234375 47.56640625 C166.96210413 55.98348692 170.46337351 64.62216875 173 74 C173.3196875 75.175625 173.639375 76.35125 173.96875 77.5625 C176.16579108 87.48987082 176.31415402 97.4371054 176.375 107.5625 C176.38691879 108.60080963 176.38691879 108.60080963 176.39907837 109.66009521 C176.51984362 123.37456216 174.82470072 136.6775648 169.875 149.5625 C169.5764209 150.35205078 169.2778418 151.14160156 168.97021484 151.95507812 C159.44957551 176.12922323 143.1863845 191.76832206 119.62939453 202.03295898 C113.80979242 204.46016444 108.02697246 206.20157986 101.875 207.5625 C100.93342041 207.77229492 99.99184082 207.98208984 99.02172852 208.19824219 C92.03157656 209.69337562 85.02638507 210.83847233 77.9375 211.75 C77.05497559 211.86545166 76.17245117 211.98090332 75.26318359 212.09985352 C50.35421046 215.03175924 24.95815646 214 0 214 C0 143.38 0 72.76 0 0 Z " fill="#FEFEFE" transform="translate(2205,1009)"/>
<path d="M0 0 C0.33 0 0.66 0 1 0 C1.01417969 1.26972656 1.02835938 2.53945313 1.04296875 3.84765625 C1.52197185 24.82553564 7.64437 42.07442883 23 57 C32.22008512 65.34271475 42.91083151 71.55891826 53.9375 77.1875 C54.60942383 77.53176025 55.28134766 77.87602051 55.97363281 78.23071289 C60.36940698 80.40375613 64.60882483 81.71619996 69.375 82.9375 C78.20412405 85.8905517 80.77949032 93.04188448 84.78808594 100.81835938 C86.67215991 104.20999616 88.96328591 107.21976057 91.375 110.25 C92.56222656 111.74273438 92.56222656 111.74273438 93.7734375 113.265625 C94.50820312 114.16796875 95.24296875 115.0703125 96 116 C96.680625 116.87527344 97.36125 117.75054688 98.0625 118.65234375 C101.00838687 122.22185587 104.45969863 125.03745615 108 128 C108.7425 128.64195312 109.485 129.28390625 110.25 129.9453125 C125.5075964 142.74362527 142.67504291 149.26759751 162 153 C162.92296875 153.19207031 163.8459375 153.38414062 164.796875 153.58203125 C181.48380599 155.75947224 199.32546516 155.72862068 213.25 145.125 C215.44446043 142.87680413 216.81414303 140.63039463 218.171875 137.8046875 C218.51831055 137.09038574 218.86474609 136.37608398 219.22167969 135.64013672 C219.47852539 135.0988916 219.73537109 134.55764648 220 134 C220.60884033 134.08564209 221.21768066 134.17128418 221.8449707 134.25952148 C224.66710653 134.65490349 227.48979323 135.0462157 230.3125 135.4375 C231.74819336 135.63956055 231.74819336 135.63956055 233.21289062 135.84570312 C267.62604312 140.59634034 306.4644627 140.22053686 335.77734375 118.98828125 C338.23692418 117.04650723 340.62190983 115.04017327 343 113 C343.61230469 112.53207031 344.22460938 112.06414062 344.85546875 111.58203125 C361.49756161 98.59586726 368.38236441 77.40903737 374 58 C374.76965088 58.01571045 375.53930176 58.0314209 376.33227539 58.04760742 C413.72494645 58.71019157 446.56985578 47.84506318 475.87768555 24.18603516 C478.27284874 22.25892789 480.04922501 20.98359166 483 20 C486.29403953 33.88202374 486.28670361 46.68192783 481 60 C480.72285156 60.73605469 480.44570312 61.47210938 480.16015625 62.23046875 C477.44916941 68.48947524 472.71676419 73.18287912 468 78 C467.36707031 78.680625 466.73414063 79.36125 466.08203125 80.0625 C451.22496101 94.77129609 426.47909027 103.13826452 406 105 C405.88785156 105.91265625 405.88785156 105.91265625 405.7734375 106.84375 C402.86801142 126.21325721 393.81720745 143.30708527 380 157 C379.43925781 157.59425781 378.87851563 158.18851563 378.30078125 158.80078125 C365.17209906 171.5848786 345.59224456 174.86210573 328.1484375 175.5546875 C326.58577652 175.61775589 326.58577652 175.61775589 324.99154663 175.68209839 C313.98205225 176.09058637 302.97742443 176.15140943 291.96142578 176.13037109 C288.60574908 176.12496901 285.25020418 176.13038269 281.89453125 176.13671875 C270.85398923 176.14006107 259.86637102 175.98303734 248.84838867 175.25097656 C237.34962194 173.66726222 237.34962194 173.66726222 227.26171875 177.32421875 C226.51535156 178.20722656 225.76898437 179.09023438 225 180 C213.7011244 192.62989498 197.88685999 200.78953996 182.0625 206.25 C181.35955811 206.4965332 180.65661621 206.74306641 179.93237305 206.99707031 C156.55821827 214.68303457 126.63295994 214.14562607 104.375 203.1875 C98.42043735 200.05775116 92.99235675 196.53496734 88 192 C87.26652344 191.35804688 86.53304688 190.71609375 85.77734375 190.0546875 C64.36434182 170.14757422 55.73091775 138.09012412 53 110 C52.88902913 106.66043597 52.89208519 103.33936396 53 100 C52.12859375 99.73445312 51.2571875 99.46890625 50.359375 99.1953125 C32.53719853 92.85393343 15.97396836 77.47206594 7.33984375 60.79296875 C-1.7176825 41.67646986 -5.24023877 20.82059154 0 0 Z " fill="#BF5818" transform="translate(1270,446)"/>
<path d="M0 0 C18.47660337 15.98739431 28.75186151 37.57907036 30.9375 61.62109375 C-32.4225 61.62109375 -95.7825 61.62109375 -161.0625 61.62109375 C-161.0625 41.85004445 -154.54093039 24.25043376 -141.0625 9.62109375 C-140.35222656 8.8425 -139.64195312 8.06390625 -138.91015625 7.26171875 C-126.98611253 -5.22814075 -111.76382958 -13.27015091 -95.0625 -17.37890625 C-93.84820313 -17.67796875 -92.63390625 -17.97703125 -91.3828125 -18.28515625 C-59.99757116 -25.22323397 -25.6029621 -19.8880152 0 0 Z " fill="#FEFEFE" transform="translate(1110.0625,1288.37890625)"/>
<path d="M0 0 C7.10377673 1.01791923 14.07511433 2.09905099 21 4 C21 4.33 21 4.66 21 5 C18.06097651 5.13481759 15.12810441 5.23399416 12.1875 5.3125 C11.35412109 5.35439453 10.52074219 5.39628906 9.66210938 5.43945312 C7.33854401 5.48611106 5.27429694 5.48493084 3 5 C0.92578125 2.48046875 0.92578125 2.48046875 0 0 Z " fill="#C86426" transform="translate(1235,177)"/>
</svg>
