<?xml version="1.0" encoding="UTF-8"?>
<svg version="1.1" xmlns="http://www.w3.org/2000/svg" width="48" height="48">
<path d="M0 0 C8.83847052 -0.61783483 8.83847052 -0.61783483 12.9375 1.5625 C18.63046052 8.29054425 18.37666524 14.50410617 18 23 C19.65 23 21.3 23 23 23 C23.12022642 28.77086794 22.91696124 34.29446341 22 40 C20.32326351 41.67673649 18.27144924 41.12787817 16.03344727 41.13894653 C14.99595337 41.13591019 14.99595337 41.13591019 13.9375 41.1328125 C13.23101318 41.13376923 12.52452637 41.13472595 11.79663086 41.13571167 C10.30029207 41.13639333 8.80395033 41.13454005 7.30761719 41.13037109 C5.00969843 41.12502257 2.71197514 41.13031651 0.4140625 41.13671875 C-1.03645877 41.13605797 -2.48697991 41.1347768 -3.9375 41.1328125 C-4.9749939 41.13584885 -4.9749939 41.13584885 -6.03344727 41.13894653 C-10.88504776 41.11495224 -10.88504776 41.11495224 -12 40 C-12.91696124 34.29446341 -13.12022642 28.77086794 -13 23 C-11.35 23 -9.7 23 -8 23 C-8.03480469 22.13117187 -8.06960937 21.26234375 -8.10546875 20.3671875 C-8.38762215 8.35551419 -8.38762215 8.35551419 -5 4 C-2.875 3.3125 -2.875 3.3125 -1 3 C-0.67 2.01 -0.34 1.02 0 0 Z " fill="#788590" transform="translate(19,4)"/>
<path d="M0 0 C8.83847052 -0.61783483 8.83847052 -0.61783483 12.9375 1.5625 C18.92401416 8.63747127 18 13.19117043 18 23 C9.42 23 0.84 23 -8 23 C-8 7.85714286 -8 7.85714286 -5 4 C-2.875 3.3125 -2.875 3.3125 -1 3 C-0.67 2.01 -0.34 1.02 0 0 Z " fill="#B95815" transform="translate(19,4)"/>
<path d="M0 0 C0.680625 0.598125 1.36125 1.19625 2.0625 1.8125 C5.31581529 4.2351816 8.25501589 5.48760257 12 7 C13 8 13 8 13.125 11.4375 C13 15 13 15 12 17 C7.38 17 2.76 17 -2 17 C-3.86558515 13.2688297 -3.58899088 8.82518685 -2.328125 4.91796875 C-1.60916165 3.25282251 -0.81112518 1.62225036 0 0 Z " fill="#F7C13E" transform="translate(19,10)"/>
<path d="M0 0 C0.66 1.32 1.32 2.64 2 4 C2.33 3.34 2.66 2.68 3 2 C4.65 2.99 6.3 3.98 8 5 C5.12777802 8.29165757 2.49054081 9.06923186 -1.703125 9.92578125 C-5.50497166 10.04863004 -7.19717857 8.44348535 -10 6 C-7.94766315 3.7522025 -6.99332739 2.9977758 -4 2 C-4 2.99 -4 3.98 -4 5 C-1.48916886 3.74458443 -1.12874554 2.49936512 0 0 Z " fill="#5EB3C4" transform="translate(25,31)"/>
<path d="M0 0 C1.98 0.99 3.96 1.98 6 3 C4.02579865 5.52259061 3.03254358 5.9929808 -0.1875 6.6875 C-1.5796875 6.8421875 -1.5796875 6.8421875 -3 7 C-2.67 5.35 -2.34 3.7 -2 2 C-1.34 2 -0.68 2 0 2 C0 1.34 0 0.68 0 0 Z " fill="#64A3B2" transform="translate(27,33)"/>
<path d="M0 0 C0.33 0 0.66 0 1 0 C1.125 6.75 1.125 6.75 0 9 C-1.98 9 -3.96 9 -6 9 C-5.38125 8.443125 -4.7625 7.88625 -4.125 7.3125 C-1.93893621 4.93354822 -1.01214301 3.03642904 0 0 Z " fill="#F0B72E" transform="translate(31,18)"/>
<path d="M0 0 C0.33 0 0.66 0 1 0 C1.33 2.97 1.66 5.94 2 9 C0.68 9 -0.64 9 -2 9 C-2.25 3.375 -2.25 3.375 0 0 Z " fill="#532508" transform="translate(15,18)"/>
<path d="M0 0 C1.5 1.1875 1.5 1.1875 3 3 C3.1875 5.6875 3.1875 5.6875 3 8 C1.68 8 0.36 8 -1 8 C-0.67 5.36 -0.34 2.72 0 0 Z " fill="#582608" transform="translate(32,19)"/>
</svg>
